<?xml version="1.0" encoding="UTF-8" standalone="no"?>
<svg
   version="1.1"
   id="Layer_1"
   x="0px"
   y="0px"
   viewBox="0 0 153.01137 163.80962"
   xml:space="preserve"
   width="153.01137"
   height="163.80962"
   xmlns="http://www.w3.org/2000/svg"
   xmlns:svg="http://www.w3.org/2000/svg"><defs
   id="defs9" />
<style
   type="text/css"
   id="style1">
   .st0{fill:#202125;}
   .dark-mode .st0{fill: #F1F3F4;}
</style>
<path
   class="st0"
   d="m 104.96649,93.878009 c 19.94,1.55 39.68,-7.15 42.08,-29 0.06,-0.73 -0.24,-1.59 -0.98,-1.93 -0.78,-0.36 -1.89,-0.31 -2.59,1.06 -10.19,22.37 -36.43,14.47 -46.979998,12.19 -12.5,-2.64 -25.46,-5.33 -42.91,-5.53 -19.94,0.49 -32.96,5.95 -44.8500002,20.74 -12.04,14.980001 -13.72,45.600001 8.3900002,62.360001 23.57,17.87 52.52,8.88 64.8,-3.69 14.96,-15.31 19.759998,-35.56 17.39,-53.800001 -8.23,-1.18 -16.33,-2.8 -24.01,-4.26 -28.45,-5.4 -45.52,0.04 -53.66,16.750001 -3.98,8.17 -3.96,17.4 0.04,25.32 4.22,8.34 12.13,13.96 22.27,15.83 12.29,2.26 23.86,-0.61 32.59,-8.09 10.48,-8.98 15.94,-23.95 15.45,-42.080001 l 3.08,0.510001 c 0.45,18.79 -5.49,34.36 -16.53,43.89 -6.44,5.56 -18.05,11.74 -35.14,8.78 -12.54,-2.17 -20.61,-9.85 -24.45,-17.46 -4.43,-8.79 -4.46,-19 -0.06,-28.04 4.46,-9.160001 11.26,-15.080001 20.79,-18.120001 9.37,-2.98 21.21,-3.14 36.18,-0.3 10.75,2.05 23.57,4.44 29.099998,4.87 z M 60.056492,120.67801 c -5.79,11.04 -20.57,12.97 -27.56,5.44 -7.11,-7.65 -3.06,-18.19 3.14,-23.56 7.19,-6.230001 17.89,-8.530001 28.46,-6.630001 -0.19,10.430001 -0.98,18.930001 -4.04,24.750001 z"
   id="path1" /><path
   class="st0"
   d="m 61.756492,67.888009 c 6.83,0.21 21.56,2.14 35.16,5.27 -4.86,-20.88 0.08,-38.34 15.369998,-44.13 16.56,-6.28 31.87,4 34.78,19.94 0.28,1.58 1.05,2.06 2.1,2.19 1.03,0.13 2.16,-0.45 2.51,-1.71 4.69,-18.76 -3.82,-32.8 -12.46,-40.1300005 -11.26,-9.52999997 -26.01,-10.5 -36.19,-8.38999997 C 72.566492,7.2880085 60.176492,35.788009 61.756492,67.888009 Z m 88.539998,-21.32 c 2.72,-12.25 -10.86,-43.3700005 -40.82,-40.1900005 -13.449998,1.42 -24.629998,8.8600005 -30.639998,17.6000005 -7.03,10.23 -9.62,23.75 -9.62,40.35 l -3.06,-0.28 c -0.04,-10.56 0.55,-27.68 9.59,-41 6.43,-9.47 17.53,-17.6200005 31.649998,-19.4700005 34.7,-4.52999997 47.09,30.6700005 42.9,42.9900005 z"
   id="path2" />
</svg>
