<svg xmlns="http://www.w3.org/2000/svg" viewBox="0 0 99 87">
  <defs>
    <linearGradient id="default_g-a" x1="94.902%" x2="13.608%" y1="55.595%" y2="58.603%">
      <stop offset="0%" stop-color="#FFAB91" stop-opacity=".02"/>
      <stop offset="100%" stop-color="#FFAB91" stop-opacity=".8"/>
    </linearGradient>
    <linearGradient id="default_g-b" x1="82.065%" x2="5.417%" y1="41.431%" y2="45.168%">
      <stop offset="0%" stop-color="#FFAB91" stop-opacity=".8"/>
      <stop offset="100%" stop-color="#FFAB91" stop-opacity=".02"/>
    </linearGradient>
  </defs>
  <g fill="none" fill-rule="evenodd">
    <path fill="url(#default_g-a)" d="M17.5253665,28.5672409 L10.0313426,41.5638545 C9.3272988,42.7877864 9.3272988,44.2964455 10.0313426,45.5184 L28.0584143,76.8225818 C28.7624582,78.0465136 30.0640518,78.7998545 31.4741116,78.7998545 L67.5262829,78.7998545 C68.9343705,78.7998545 70.2379363,78.0465136 70.9419801,76.8245591 L81.7905657,58.0167409 C82.8811434,56.1264682 85.2910637,55.4759455 87.1783745,56.5693773 C89.0637131,57.6608318 89.7125378,60.0810136 88.6219602,61.9712864 L75.4975578,84.7316727 C74.7915418,85.9556045 73.4899482,86.7089455 72.0798884,86.7089455 L26.920506,86.7089455 C25.5104462,86.7089455 24.2088526,85.9556045 23.5028367,84.7316727 L0.922159363,45.5184 C0.220087649,44.2964455 0.220087649,42.7877864 0.922159363,41.5638545 L10.6939721,24.6126955 C11.7825777,22.7204455 14.1964422,22.0738773 16.0817809,23.1653318 C17.9690916,24.2567864 18.6139721,26.6749909 17.5253665,28.5672409"/>
    <path fill="url(#default_g-b)" d="M81.4831135,58.5399273 L88.9633327,45.5393591 C89.6673765,44.3174045 89.6673765,42.8087455 88.9633327,41.5848136 L70.936261,10.2806318 C70.2322171,9.05867727 68.9286514,8.30335909 67.5205637,8.30335909 L31.4664203,8.30335909 C30.0583327,8.30335909 28.756739,9.05867727 28.0526952,10.2806318 L17.2928546,28.9895864 C16.204249,30.8818364 13.7903845,31.5303818 11.9050458,30.4389273 C10.0177351,29.3454955 9.37285458,26.9272909 10.4614602,25.0370182 L23.4971175,2.37154091 C24.2031335,1.14958636 25.5047271,0.394268182 26.9147869,0.394268182 L72.0741693,0.394268182 C73.4842291,0.394268182 74.7858227,1.14958636 75.4898665,2.37154091 L98.0725159,41.5848136 C98.7765598,42.8087455 98.7765598,44.3174045 98.0725159,45.5393591 L88.314508,62.49645 C87.2259024,64.3867227 84.81401,65.0352682 82.9266992,63.9418364 C81.0393884,62.8503818 80.394508,60.4321773 81.4831135,58.5399273 Z"/>
    <path fill="#FF5722" d="M88.9682629 45.5112818L81.4781833 58.5197591C80.3876056 60.4100318 81.0364303 62.8302136 82.9217689 63.9236455 84.8090797 65.0131227 87.219 64.3645773 88.3095777 62.4743045L98.0774462 45.5112818C98.7834622 44.28735 98.7834622 42.7806682 98.0774462 41.5567364L88.3095777 24.5937136C87.2209721 22.7034409 84.8090797 22.0548955 82.9217689 23.14635 81.0364303 24.2397818 80.3876056 26.6579864 81.4781833 28.5502364L88.9682629 41.5567364C89.6723068 42.7806682 89.6723068 44.28735 88.9682629 45.5112818M10.0317371 45.5112818L17.5237888 58.5197591C18.6123944 60.4100318 17.9635697 62.8302136 16.0782311 63.9236455 14.1909203 65.0131227 11.781 64.3645773 10.6904223 62.4743045L.922553785 45.5112818C.216537849 44.28735.216537849 42.7806682.922553785 41.5567364L10.6904223 24.5937136C11.781 22.7034409 14.1909203 22.0548955 16.0782311 23.14635 17.9635697 24.2397818 18.6123944 26.6579864 17.5218167 28.5502364L10.0317371 41.5567364C9.32769323 42.7806682 9.32769323 44.28735 10.0317371 45.5112818"/>
    <path fill="#FF5722" fill-rule="nonzero" d="M51.01,62.42 C47.2333144,62.42 43.878348,61.5858417 40.945,59.9175 C38.011652,58.2491583 35.7383414,55.9208483 34.125,52.9325 C32.5116586,49.9441517 31.705,46.5433524 31.705,42.73 C31.705,38.8433139 32.5483249,35.3966817 34.235,32.39 C35.9216751,29.3833183 38.2224854,27.0550082 41.1375,25.405 C44.0525146,23.7549917 47.2883155,22.93 50.845,22.93 C53.7050143,22.93 56.2074893,23.2783298 58.3525,23.975 C60.4975107,24.6716701 62.5599901,25.6433271 64.54,26.89 C64.8333348,27.0366674 65.0899989,27.2933315 65.31,27.66 C65.5300011,28.0266685 65.64,28.4299978 65.64,28.87 C65.64,29.4933364 65.4291688,30.0249978 65.0075,30.465 C64.5858312,30.9050022 64.0266701,31.125 63.33,31.125 C62.9266646,31.125 62.5416685,31.0333342 62.175,30.85 C60.451658,29.8233282 58.7283419,29.0533359 57.005,28.54 C55.281658,28.0266641 53.4116767,27.77 51.395,27.77 C48.6083194,27.77 46.0966778,28.3566608 43.86,29.53 C41.6233221,30.7033392 39.8725063,32.4174887 38.6075,34.6725 C37.3424937,36.9275113 36.71,39.6133177 36.71,42.73 C36.71,45.5900143 37.3058274,48.1474887 38.4975,50.4025 C39.6891726,52.6575113 41.4124887,54.4358268 43.6675,55.7375 C45.9225113,57.0391732 48.5899846,57.69 51.67,57.69 C55.1166839,57.69 58.3249851,56.8833414 61.295,55.27 L61.295,45.315 L52.22,45.315 C51.5966635,45.315 51.0650022,45.0950022 50.625,44.655 C50.1849978,44.2149978 49.965,43.6833364 49.965,43.06 C49.965,42.4366635 50.1849978,41.9050022 50.625,41.465 C51.0650022,41.0249978 51.5966635,40.805 52.22,40.805 L63.055,40.805 C63.788337,40.805 64.4116641,41.0616641 64.925,41.575 C65.4383359,42.0883359 65.695,42.711663 65.695,43.445 L65.695,55.93 C65.695,56.7000038 65.5025019,57.387497 65.1175,57.9925 C64.7324981,58.597503 64.2283364,59.0466652 63.605,59.34 C59.4983128,61.3933436 55.3000214,62.42 51.01,62.42 Z"/>
  </g>
</svg>

