<?xml version="1.0" encoding="UTF-8" standalone="no"?>
<!-- Created with Inkscape (http://www.inkscape.org/) -->

<svg
   version="1.1"
   id="svg1"
   width="200"
   height="200"
   viewBox="0 0 200 200"
   xmlns="http://www.w3.org/2000/svg"
   xmlns:svg="http://www.w3.org/2000/svg">
  <defs
     id="defs1" />
  <g
     id="g1">
    <path
       id="path2"
       style="display:inline;opacity:1;fill:#000000"
       d="M 5.1054688,37.130859 5.453125,161.98828 H 30.052734 V 124.16016 H 67.185547 V 112.0918 h 12.53125 V 49.316406 H 67.650391 V 37.130859 Z M 29.822266,62.195312 H 55.001953 V 98.748047 H 29.822266 Z" />
    <path
       style="fill:#000000"
       d="M 97.691704,37.316266 H 149.35608 V 61.085561 A 11.453619,11.453619 45 0 0 160.8097,72.53918 h 20.2197 v 15.290568 h 13.19721 V 145.2225 h -13.2031 v 7.23735 a 7.5292413,7.5292413 135 0 1 -7.52924,7.52924 H 97.493963 c -4.841308,0 -8.748383,-3.92462 -8.730778,-8.76589 0.127108,-34.95518 0.09698,-69.909675 -0.06849,-104.864232 -0.02364,-4.994155 4.002796,-9.042702 8.997007,-9.042702 z"
       id="path3" />
    <path
       style="fill:#000000"
       d="m 154.85756,39.582427 v 20.740265 a 5.0693292,5.0693292 45 0 0 5.06933,5.069329 h 17.84682 z"
       id="path4"
       transform="translate(0.59555295,0.99258825)" />
    <rect
       style="display:inline;fill:#ffffff;fill-opacity:1"
       id="rect1"
       width="100.68118"
       height="47.697315"
       x="88.753197"
       y="93.065834" />
    <path
       style="font-size:34.6667px;font-family:Monospace;-inkscape-font-specification:Monospace"
       d="m 103.4611,106.50992 -11.358091,19.48309 h 11.154961 v 2.42058 H 88.937641 v -1.94662 L 100.24495,106.95002 H 89.428527 v -2.42057 H 103.4611 Z m 20.00783,21.90367 h -12.47528 v -23.88414 h 12.37371 v 2.42057 h -9.59766 v 7.39715 h 9.22527 v 2.42057 h -9.22527 v 9.22527 h 9.69923 z m 23.8672,0 h -3.47005 l -7.00782,-10.85027 h -3.08073 v 10.85027 h -2.77605 v -23.88414 h 6.75392 q 3.40234,0 5.36589,1.65885 1.98047,1.64193 1.98047,4.58725 0,2.18359 -1.43881,3.89323 -1.4388,1.69271 -3.96094,2.30209 z m -13.5586,-13.27085 h 3.50391 q 2.20052,0 3.57162,-1.1849 1.37109,-1.20182 1.37109,-3.01302 0,-3.9948 -4.875,-3.9948 h -3.57162 z m 24.84898,-11.07032 q 4.01172,0 6.11068,3.18229 2.11589,3.16537 2.11589,9.22527 0,6.02605 -2.09896,9.20834 -2.09896,3.1823 -6.12761,3.1823 -3.9948,0 -6.11069,-3.16537 -2.09896,-3.18229 -2.09896,-9.22527 0,-6.04297 2.09896,-9.22527 2.09896,-3.18229 6.11069,-3.18229 z m 0,22.3607 q 5.28125,0 5.28125,-9.95314 0,-9.97006 -5.28125,-9.97006 -2.57292,0 -3.92709,2.58985 -1.33724,2.57291 -1.33724,7.38021 0,4.85808 1.33724,7.41407 1.33724,2.53907 3.92709,2.53907 z"
       id="text4"
       aria-label="ZERO" />
  </g>
</svg>
