<svg xmlns="http://www.w3.org/2000/svg" xmlns:xlink="http://www.w3.org/1999/xlink" width="520" height="520">
	<rect xmlns="http://www.w3.org/2000/svg" fill="rgb(255,255,255)" stroke="none" width="520" height="520"/>
	<rect fill="rgb(112,191,79)" stroke="none" x="305.551" y="171.6" width="17.899994" height="166.95"/>
	<rect fill="rgb(233,64,55)" stroke="none" x="289.751" y="171.6" width="16.799988" height="166.95"/>
	<rect fill="rgb(70,91,166)" stroke="none" x="322.451" y="171.6" width="15.970001" height="166.95"/>
	<ellipse fill="rgb(41,41,41)" stroke="none" cx="314.906" cy="135.315" rx="29.25" ry="29.249998"/>
	<path fill="rgb(41,41,41)" stroke="none" d="M 14.181 189.98 C 23.931 177.92 39.421 172.21 54.431 170.55 C 76.951 167.85 99.821 172.6 120.421 181.72 L 106.671 216.49 C 93.101 210.51 78.591 205.25 63.531 205.91 C 58.411 206.1 52.431 207.89 50.261 213.04 C 48.171 217.78 51.071 223.03 55.131 225.62 C 71.041 236.01 90.221 240.73 105.011 252.95 C 111.901 258.46 116.881 266.25 118.911 274.84 C 122.101 288.49 120.491 303.66 112.681 315.52 C 105.781 326.31 94.371 333.51 82.301 337.24 C 67.501 341.86 51.711 341.56 36.431 340.13 C 25.091 339.07 14.191 335.4 3.871 330.71 L 3.801 290.45 C 17.781 297.5 32.921 302.5 48.531 304.1 C 54.971 304.6 61.721 304.98 67.861 302.62 C 72.391 300.88 75.951 296.28 75.411 291.28 C 75.191 286.12 70.651 282.73 66.581 280.34 C 51.511 272.02 34.491 267.01 21.051 255.92 C 12.741 249.08 7.061 239.15 5.651 228.46 C 3.641 215.23 5.461 200.6 14.181 189.98" style="transform-origin: 62.127px 255.43px;"/>
	<path fill="rgb(41,41,41)" stroke="none" d="M 140.371 172.2 L 185.601 172.2 L 185.601 244.5 L 234.381 172.19 L 283.561 172.2 L 231.071 246.62 L 282.641 338.77 L 231.831 338.75 L 198.731 275.1 L 185.781 282.8 L 185.601 338.77 L 140.371 338.77 L 140.371 172.2"/>
	<path fill="rgb(41,41,41)" stroke="none" d="M 406.001 307.51 L 460.256 307.51 L 468.861 338.75 L 518.091 338.77 L 463.111 171.53 L 402.981 171.52 L 348.681 338.77 L 398.051 338.82 L 433.301 199.18 L 451.321 270.63 L 410.051 270.63"/>
	<defs>
		<linearGradient id="gradient_0" gradientUnits="userSpaceOnUse" x1="160" y1="290" x2="341" y2="290">
			<stop offset="0" stop-color="rgb(240,241,241)"/>
			<stop offset="1" stop-color="rgb(86,86,86)"/>
		</linearGradient>
	</defs>
	<path fill="url(#gradient_0)" stroke="none" d="M 117.551 384.825 C 117.551 384.752 117.56 384.678 117.578 384.605 C 117.596 384.532 117.623 384.459 117.659 384.386 C 117.695 384.313 117.74 384.241 117.793 384.168 C 117.847 384.096 117.91 384.024 117.981 383.952 C 118.053 383.88 118.133 383.809 118.222 383.738 C 118.311 383.667 118.408 383.596 118.514 383.526 C 118.621 383.456 118.736 383.386 118.859 383.317 C 118.983 383.248 119.114 383.18 119.254 383.112 C 119.394 383.045 119.543 382.978 119.699 382.912 C 119.856 382.845 120.021 382.78 120.193 382.715 C 120.366 382.651 120.546 382.587 120.734 382.524 C 120.923 382.461 121.119 382.4 121.322 382.339 C 121.526 382.278 121.736 382.218 121.954 382.159 C 122.172 382.1 122.398 382.043 122.63 381.986 C 122.862 381.929 123.101 381.874 123.347 381.82 C 123.593 381.765 123.846 381.712 124.104 381.661 C 124.364 381.609 124.629 381.558 124.9 381.509 C 125.172 381.46 125.449 381.412 125.731 381.366 C 126.015 381.319 126.303 381.274 126.597 381.231 C 126.891 381.187 127.191 381.145 127.495 381.104 C 127.8 381.063 128.109 381.024 128.423 380.987 C 128.737 380.949 129.056 380.913 129.378 380.878 C 129.702 380.844 130.029 380.811 130.359 380.78 C 130.691 380.749 131.025 380.719 131.363 380.691 C 131.702 380.663 132.044 380.637 132.388 380.612 C 132.733 380.587 133.081 380.564 133.431 380.543 C 133.782 380.522 134.135 380.502 134.489 380.484 C 134.845 380.466 135.202 380.45 135.561 380.436 C 135.921 380.422 136.281 380.409 136.643 380.398 C 137.005 380.387 137.369 380.379 137.733 380.372 C 138.098 380.365 138.463 380.359 138.828 380.355 C 139.194 380.352 139.56 380.35 139.926 380.35 L 298.176 380.35 C 298.542 380.35 298.908 380.352 299.274 380.355 C 299.64 380.359 300.005 380.365 300.369 380.372 C 300.734 380.379 301.097 380.387 301.459 380.398 C 301.821 380.409 302.182 380.422 302.541 380.436 C 302.901 380.45 303.258 380.466 303.613 380.484 C 303.968 380.502 304.321 380.522 304.671 380.543 C 305.022 380.564 305.37 380.587 305.714 380.612 C 306.059 380.637 306.401 380.663 306.739 380.691 C 307.077 380.719 307.412 380.749 307.743 380.78 C 308.074 380.811 308.401 380.844 308.724 380.878 C 309.047 380.913 309.365 380.949 309.679 380.987 C 309.993 381.024 310.303 381.063 310.607 381.104 C 310.912 381.145 311.211 381.187 311.505 381.231 C 311.799 381.274 312.088 381.319 312.371 381.366 C 312.654 381.412 312.931 381.46 313.202 381.509 C 313.474 381.558 313.739 381.609 313.998 381.661 C 314.257 381.712 314.509 381.765 314.755 381.82 C 315.001 381.874 315.24 381.929 315.472 381.986 C 315.705 382.043 315.93 382.1 316.148 382.159 C 316.366 382.218 316.577 382.278 316.78 382.339 C 316.984 382.4 317.18 382.461 317.368 382.524 C 317.556 382.587 317.737 382.651 317.909 382.715 C 318.082 382.78 318.247 382.845 318.403 382.912 C 318.56 382.978 318.708 383.045 318.848 383.112 C 318.988 383.18 319.12 383.248 319.243 383.317 C 319.367 383.386 319.482 383.456 319.588 383.526 C 319.694 383.596 319.792 383.667 319.88 383.738 C 319.97 383.809 320.05 383.88 320.121 383.952 C 320.193 384.024 320.255 384.096 320.309 384.168 C 320.363 384.241 320.407 384.313 320.443 384.386 C 320.479 384.459 320.506 384.532 320.524 384.605 C 320.542 384.678 320.551 384.752 320.551 384.825 C 320.551 384.898 320.542 384.972 320.524 385.045 C 320.506 385.118 320.479 385.191 320.443 385.264 C 320.407 385.337 320.363 385.409 320.309 385.482 C 320.255 385.554 320.193 385.626 320.121 385.698 C 320.05 385.77 319.97 385.841 319.88 385.912 C 319.792 385.983 319.694 386.054 319.587 386.124 C 319.481 386.194 319.367 386.264 319.243 386.333 C 319.12 386.402 318.988 386.47 318.848 386.537 C 318.708 386.605 318.56 386.672 318.403 386.738 C 318.247 386.805 318.082 386.87 317.909 386.934 C 317.737 386.999 317.556 387.063 317.368 387.126 C 317.18 387.189 316.984 387.25 316.78 387.311 C 316.577 387.372 316.366 387.432 316.148 387.491 C 315.93 387.55 315.705 387.607 315.472 387.664 C 315.24 387.721 315.001 387.776 314.755 387.83 C 314.509 387.885 314.257 387.938 313.998 387.989 C 313.739 388.041 313.474 388.092 313.202 388.141 C 312.931 388.19 312.654 388.238 312.371 388.284 C 312.088 388.331 311.799 388.376 311.505 388.419 C 311.211 388.463 310.912 388.505 310.607 388.546 C 310.303 388.587 309.993 388.626 309.679 388.663 C 309.365 388.701 309.047 388.737 308.723 388.772 C 308.401 388.806 308.074 388.839 307.743 388.87 C 307.412 388.901 307.077 388.931 306.739 388.959 C 306.401 388.987 306.059 389.013 305.714 389.038 C 305.37 389.063 305.022 389.086 304.671 389.107 C 304.321 389.128 303.968 389.148 303.613 389.166 C 303.258 389.184 302.901 389.2 302.541 389.214 C 302.182 389.228 301.821 389.241 301.459 389.252 C 301.097 389.263 300.734 389.271 300.369 389.278 C 300.005 389.285 299.64 389.291 299.274 389.295 C 298.908 389.298 298.542 389.3 298.176 389.3 L 139.926 389.3 C 139.56 389.3 139.194 389.298 138.828 389.295 C 138.463 389.291 138.098 389.285 137.733 389.278 C 137.369 389.271 137.005 389.263 136.643 389.252 C 136.281 389.241 135.921 389.228 135.561 389.214 C 135.202 389.2 134.845 389.184 134.489 389.166 C 134.135 389.148 133.782 389.128 133.431 389.107 C 133.081 389.086 132.733 389.063 132.388 389.038 C 132.044 389.013 131.702 388.987 131.363 388.959 C 131.025 388.931 130.691 388.901 130.359 388.87 C 130.029 388.839 129.702 388.806 129.378 388.772 C 129.056 388.737 128.737 388.701 128.423 388.663 C 128.109 388.626 127.8 388.587 127.495 388.546 C 127.191 388.505 126.891 388.463 126.597 388.419 C 126.303 388.376 126.015 388.331 125.731 388.284 C 125.449 388.238 125.172 388.19 124.9 388.141 C 124.629 388.092 124.364 388.041 124.104 387.989 C 123.846 387.938 123.593 387.885 123.347 387.83 C 123.101 387.776 122.862 387.721 122.63 387.664 C 122.398 387.607 122.172 387.55 121.954 387.491 C 121.736 387.432 121.526 387.372 121.322 387.311 C 121.119 387.25 120.923 387.189 120.734 387.126 C 120.546 387.063 120.366 386.999 120.193 386.934 C 120.021 386.87 119.856 386.805 119.699 386.738 C 119.543 386.672 119.394 386.605 119.254 386.537 C 119.114 386.47 118.983 386.402 118.859 386.333 C 118.736 386.264 118.621 386.194 118.514 386.124 C 118.408 386.054 118.311 385.983 118.222 385.912 C 118.133 385.841 118.053 385.77 117.981 385.698 C 117.91 385.626 117.847 385.554 117.793 385.482 C 117.74 385.409 117.695 385.337 117.659 385.264 C 117.623 385.191 117.596 385.118 117.578 385.045 C 117.56 384.972 117.551 384.898 117.551 384.825 Z"/>
	<path fill="rgb(41,41,41)" stroke="none" d="M 342.191 346.67 L 314.843 382.742 L 287.351 346.83 L 342.191 346.67"/>
</svg>